<?xml version="1.0" encoding="UTF-8"?>
<!DOCTYPE svg PUBLIC "-//W3C//DTD SVG 1.1//EN" "http://www.w3.org/Graphics/SVG/1.1/DTD/svg11.dtd">
<!-- Creator: CorelDRAW -->
<svg xmlns="http://www.w3.org/2000/svg" xml:space="preserve" width="46px" height="64px" version="1.1" style="shape-rendering:geometricPrecision; text-rendering:geometricPrecision; image-rendering:optimizeQuality; fill-rule:evenodd; clip-rule:evenodd"
viewBox="0 0 46 64.44"
 xmlns:xlink="http://www.w3.org/1999/xlink"
 xmlns:xodm="http://www.corel.com/coreldraw/odm/2003">
 <defs>
  <style type="text/css">
   <![CDATA[
    .fil0 {fill:#2062AF;fill-rule:nonzero}
    .fil1 {fill:#3C9CD7;fill-rule:nonzero}
    .fil2 {fill:white;fill-rule:nonzero}
    .fil6 {fill:white;fill-rule:nonzero;fill-opacity:0.050980}
    .fil3 {fill:url(#id0);fill-rule:nonzero}
    .fil4 {fill:url(#id1);fill-rule:nonzero}
    .fil5 {fill:url(#id2);fill-rule:nonzero}
    .fil7 {fill:url(#id3);fill-rule:nonzero}
   ]]>
  </style>
  <linearGradient id="id0" gradientUnits="userSpaceOnUse" x1="-270.63" y1="-341.98" x2="-270.63" y2="-353.09">
   <stop offset="0" style="stop-opacity:1; stop-color:#D1D3D4"/>
   <stop offset="0.388235" style="stop-opacity:0; stop-color:#D1D3D4"/>
   <stop offset="1" style="stop-opacity:1; stop-color:#D1D3D4"/>
  </linearGradient>
  <linearGradient id="id1" gradientUnits="userSpaceOnUse" xlink:href="#id0" x1="-256.77" y1="-347.46" x2="-256.77" y2="-358.99">
  </linearGradient>
  <linearGradient id="id2" gradientUnits="userSpaceOnUse" x1="-277.35" y1="-337.04" x2="-250.73" y2="-337.04">
   <stop offset="0" style="stop-opacity:1; stop-color:#E8E7E5"/>
   <stop offset="1" style="stop-opacity:1; stop-color:white"/>
  </linearGradient>
  <linearGradient id="id3" gradientUnits="userSpaceOnUse" xlink:href="#id2" x1="-278.58" y1="-356.24" x2="-249.64" y2="-356.24">
  </linearGradient>
 </defs>
 <g id="Layer_x0020_1">
  <metadata id="CorelCorpID_0Corel-Layer"/>
  <g id="SVGRepo_iconCarrier">
   <polygon class="fil0" points="41.69,59.41 23,64.44 4.31,59.41 0,12.69 46,12.69 "/>
   <polygon class="fil1" points="23,16.47 23,60.42 23.04,60.44 38.16,56.36 41.66,16.47 "/>
   <path class="fil2" d="M12.39 5.82l0 -2.78 4.06 0 0 -3.04 -7.1 0 0 8.6 7.1 0 0 -2.78 -4.06 0zm11.36 -2.78l2.84 0 0 -3.04 -7.1 0 0 3.04c0.95,0.95 1.44,1.41 2.81,2.78 -0.8,0 -2.81,0 -2.81,0l0 2.78 7.1 0 0 -2.78 -2.84 -2.78zm10.06 0l2.84 0 0 -3.04 -7.1 0 0 3.04c0.95,0.95 1.44,1.41 2.82,2.78 -0.81,0 -2.82,0 -2.82,0l0 2.78 7.1 0 0 -2.78 -2.84 -2.78z"/>
   <polygon class="fil2" points="22.98,28.15 9.61,33.72 10.05,39.24 22.98,33.71 36.74,27.83 37.31,22.19 22.98,28.15 "/>
   <polygon class="fil3" points="9.61,33.72 10.05,39.24 22.98,33.71 22.98,28.15 9.61,33.72 "/>
   <polygon class="fil4" points="37.31,22.19 22.98,28.15 22.98,33.71 36.74,27.83 37.31,22.19 "/>
   <polygon class="fil5" points="9.63,33.72 10.07,39.24 29.91,39.3 29.47,46.65 22.94,48.49 16.66,46.91 16.28,42.34 10.45,42.34 11.21,51.16 23,54.64 34.73,51.22 36.25,33.72 "/>
   <path class="fil6" d="M22.98 33.72l-13.37 0 0.44 5.52 12.93 0.04 0 -5.56zm0 14.76l-0.06 0.01 -6.28 -1.58 -0.38 -4.57 -5.83 0 0.76 8.82 11.79 3.48 0 -6.16 0 0z"/>
   <polygon class="fil7" points="8.4,22.19 37.31,22.19 36.74,27.83 9.1,27.83 "/>
   <polygon class="fil6" points="22.98,22.19 8.4,22.19 9.1,27.83 22.98,27.83 "/>
  </g>
 </g>
</svg>
