<?xml version="1.0" encoding="UTF-8"?>
<!DOCTYPE svg PUBLIC "-//W3C//DTD SVG 1.1//EN" "http://www.w3.org/Graphics/SVG/1.1/DTD/svg11.dtd">
<!-- Creator: CorelDRAW -->
<svg xmlns="http://www.w3.org/2000/svg" xml:space="preserve" width="286px" height="65px" version="1.1" style="shape-rendering:geometricPrecision; text-rendering:geometricPrecision; image-rendering:optimizeQuality; fill-rule:evenodd; clip-rule:evenodd"
viewBox="0 0 286 65.06"
 xmlns:xlink="http://www.w3.org/1999/xlink"
 xmlns:xodm="http://www.corel.com/coreldraw/odm/2003">
 <defs>
  <style type="text/css">
   <![CDATA[
    .fil1 {fill:#21609B}
    .fil0 {fill:white}
   ]]>
  </style>
 </defs>
 <g id="Layer_x0020_1">
  <metadata id="CorelCorpID_0Corel-Layer"/>
  <g id="SVGRepo_iconCarrier">
   <g>
    <g>
     <path class="fil0" d="M273.97 4.87l12 0.07c0,0 -22.32,30.24 -24.14,32.7 -0.59,0.8 -1.49,1.66 -1.95,2.73 -1.15,2.68 -2.33,8.57 -2.33,8.57l-10.98 0.05c0,0 1.7,-6.13 1.63,-9.4 -0.06,-2.85 -1.51,-5.7 -2.33,-8.56 -0.83,-2.9 -1.95,-8.57 -1.95,-8.57l11.29 0 1.56 6.23 17.2 -23.82z"/>
     <path class="fil0" d="M251.24 11.25c2.21,1.34 3.57,8.7 3.57,8.7 0,0 -11.59,0.17 -17.9,0.17l-5.45 0 -6.62 28.82 -10.12 0c0,0 6.3,-31.31 7.79,-36.99 0.48,-1.84 3.3,-1.52 8.06,-1.52l7.61 0c4.9,0 10.64,-0.63 13.06,0.82z"/>
     <path class="fil0" d="M204.11 25.28c0,0 0.32,-1.85 -1.07,-3.99 -1.18,-1.82 -2.28,-2.25 -5.39,-2.34 -8.79,-0.28 -8.62,6.24 -8.62,6.24l15.08 0.09 0 0zm9.54 -7.46c1.29,4.65 -1.17,15.57 -1.17,15.57 0,0 -12.83,-0.21 -19.85,0 -2.19,0.07 -4.8,-0.23 -5.45,0.78 -0.92,1.43 0.33,3.62 1.39,4.55 1.22,1.06 3.59,1.18 4.45,1.29 5.7,0.73 17.64,0.19 17.64,0.19l-2.07 9.16c0,0 -16.87,0.84 -25.31,-1.17 -1.66,-0.4 -3.22,-1.2 -4.28,-2.34 -0.29,-0.31 -0.54,-0.73 -0.81,-1.1 -0.22,-0.29 -0.85,-1.25 -1.14,-2.01 -1.92,-5.14 0.23,-14.98 2.34,-20.25 0.25,-0.61 0.55,-1.38 0.88,-2.04 0.4,-0.82 0.74,-1.75 1.07,-2.24 0.21,-0.34 0.48,-0.56 0.71,-0.88 0.26,-0.37 0.56,-0.74 0.84,-1.07 0.78,-0.9 1.67,-1.54 2.73,-2.33 3.51,-2.63 9.88,-4.68 17.52,-3.9 2.88,0.3 7.22,1.33 9.34,4.29 0.57,0.79 0.85,2.36 1.17,3.5l0 0 0 0z"/>
     <path class="fil0" d="M167.22 10.39l9.82 -0.06c0,0 -5.47,25.95 -8.26,38.61l-11.29 0c-7.89,0 -14.92,0.97 -17.91,-4.68 -2.9,-5.48 -0.13,-14.5 1.17,-20.63 0.92,-4.34 2.85,-13.2 2.85,-13.2l10.17 -0.1c0,0 -2.87,13.8 -4.07,20.7 -0.42,2.46 -1.31,4.79 -0.39,6.61 0.88,1.74 2.11,1.87 5.84,1.95 1.19,0.03 5.07,0 5.07,0l7 -29.2z"/>
     <path class="fil0" d="M121.28 29.08c1.03,-3.65 2.53,-7.61 2.34,-10.9 -0.21,-3.52 -3.16,-6.73 -5.06,-7.4 -5.74,-2.02 -11.11,0.81 -13.24,3.12 -2.76,2.99 -3.69,6.48 -4.67,11.29 -0.73,3.57 -1.33,7.33 0,10.12 2.34,4.92 9.65,3.85 17.52,3.89 1.17,-3.13 2.13,-6.64 3.11,-10.12l0 0 0 0zm13.63 -14.41c1.12,8.16 -3.18,17.15 -6.14,24.98 3.02,0.27 5.66,-0.04 5.86,0.18 0.19,0.3 -2.03,9.34 -2.8,9.37 -2.4,0.06 -10.35,0.12 -13.66,0.12 -10.81,0 -20.93,0.71 -26.09,-4.67 -2.09,-2.18 -3.54,-5.93 -3.89,-8.56 -0.58,-4.4 0.15,-9.25 1.17,-13.24 0.92,-3.61 2.1,-7.01 3.89,-10.12 4.54,-7.93 12.45,-13.82 25.7,-12.46 2.57,0.26 6.26,1.39 8.56,2.72 0.16,0.1 0.72,0.54 0.85,0.62 3.11,1.98 5.95,6.71 6.55,11.06l0 0 0 0z"/>
     <path class="fil0" d="M87.07 10.44c-0.65,2.98 -1.31,6.35 -1.99,9.3l-10.91 0c0.85,-3.27 1.5,-6.51 2.34,-9.35 3.49,0 6.73,0.05 10.56,0.05z"/>
     <path class="fil0" d="M73.78 22.46l10.52 0c-1.38,7.61 -4.1,19.88 -6.23,28.42 -1.34,5.35 -2.23,9.25 -5.84,12.07 -0.33,0.25 -0.51,0.13 -0.78,0.39 -0.67,0.64 -3.75,1.37 -5.45,1.56 -2.77,0.3 -5.91,0.04 -9.31,-0.03 0.89,-3.26 1.9,-7.17 2.69,-10.09 8.3,1 8.51,-6.85 10.12,-14.41 0.93,-4.37 3.75,-16.16 4.28,-17.91z"/>
     <g>
      <path class="fil1" d="M49.26 42.32l-0.23 0.58c-3.84,7.48 -10.64,12.06 -20.34,12.26 -4.54,0.1 -8.86,-1.07 -11.68,-2.33 -6.09,-2.74 -11.22,-7.81 -14.02,-13.24 -4.01,-7.77 -4.74,-18.59 3.61,-26.67 0.13,0 -1.01,1.75 -0.88,1.75l-0.23 0.75c-6.02,18.83 12.52,34.97 30.53,33.13 4.33,-0.45 9.85,-2.82 13.24,-6.23z"/>
      <path class="fil1" d="M38.36 34.53c4.53,0.03 9.26,-2.09 12.06,-5.06 -2.45,6.22 -9.55,10.23 -19.07,8.95 -7.98,-1.06 -15.57,-9.09 -16.35,-17.13 -0.58,-5.85 1.46,-9.34 4.82,-13.58 -1.16,2.22 -1.6,3.93 -1.71,5.02 -1.28,12.65 10.11,21.73 20.25,21.8z"/>
      <path class="fil1" d="M49.97 18.81c-0.71,1.61 -4.76,4.67 -6.55,5.05 -7.1,1.51 -11.64,-1.85 -14.02,-5.68 -0.35,-0.57 -1.01,-2.13 -1.12,-2.53 -0.93,-3.14 -0.5,-7.89 2.25,-10.34 -0.83,2.33 -0.95,5.05 -0.51,6.81 0.26,1.07 1.07,2.93 1.87,4.1 1.47,2.13 2.4,2.65 4.29,3.78 0.84,0.51 1.75,0.92 2.15,1.04 1.79,0.52 5.56,1.91 11.64,-2.23z"/>
     </g>
    </g>
   </g>
  </g>
 </g>
</svg>
