<?xml version="1.0" encoding="UTF-8"?>
<!DOCTYPE svg PUBLIC "-//W3C//DTD SVG 1.1//EN" "http://www.w3.org/Graphics/SVG/1.1/DTD/svg11.dtd">
<!-- Creator: CorelDRAW -->
<svg xmlns="http://www.w3.org/2000/svg" xml:space="preserve" width="226px" height="65px" version="1.1" style="shape-rendering:geometricPrecision; text-rendering:geometricPrecision; image-rendering:optimizeQuality; fill-rule:evenodd; clip-rule:evenodd"
viewBox="0 0 226 65.03"
 xmlns:xlink="http://www.w3.org/1999/xlink"
 xmlns:xodm="http://www.corel.com/coreldraw/odm/2003">
 <defs>
  <style type="text/css">
   <![CDATA[
    .fil2 {fill:black}
    .fil4 {fill:#499D4A}
    .fil5 {fill:#58AA50}
    .fil0 {fill:#8E714E}
    .fil3 {fill:#A6A385}
    .fil1 {fill:white}
   ]]>
  </style>
 </defs>
 <g id="Layer_x0020_1">
  <metadata id="CorelCorpID_0Corel-Layer"/>
  <g id="SVGRepo_iconCarrier">
   <g>
    <path class="fil0" d="M210.27 26.99c-0.2,0.04 -0.41,0.49 -0.41,0.73 -0.04,1.63 -0.08,5.94 -0.08,8.87 0,0.08 0.13,0.24 0.25,0.24 0.61,0.04 2.07,0.08 3.33,0.08 1.75,0 2.77,-0.24 3.34,-0.49 1.46,-0.73 2.15,-2.31 2.15,-4.06 0,-3.95 -2.76,-5.45 -6.87,-5.45 -0.29,-0.04 -1.1,-0.04 -1.71,0.08l0 0zm10.49 18.18c0,-4.03 -2.96,-6.27 -8.33,-6.27 -0.25,0 -1.96,-0.04 -2.36,0.05 -0.12,0.04 -0.29,0.12 -0.29,0.24 0,2.89 -0.04,7.48 0.08,9.27 0.09,0.78 0.66,1.87 1.35,2.2 0.73,0.41 2.4,0.49 3.54,0.49 3.21,0 6.01,-1.79 6.01,-5.98l0 0zm-18.79 -20.42c0.41,0 1.63,0.12 4.76,0.12 2.97,0 5.33,-0.08 8.22,-0.08 3.54,0 8.42,1.26 8.42,6.55 0,2.6 -1.83,4.68 -4.23,5.69 -0.12,0.05 -0.12,0.13 0,0.17 3.41,0.85 6.42,2.97 6.42,6.95 0,3.91 -2.44,6.39 -5.98,7.93 -2.15,0.94 -4.83,1.26 -7.56,1.26 -2.07,0 -7.65,-0.24 -10.74,-0.16 -0.32,-0.12 0.29,-1.59 0.57,-1.83 0.74,-0.04 1.3,-0.08 2.08,-0.33 1.1,-0.28 1.22,-0.61 1.38,-2.27 0.08,-1.43 0.08,-6.47 0.08,-10.05 0,-4.92 0.04,-8.25 0,-9.88 -0.04,-1.26 -0.49,-1.67 -1.38,-1.91 -0.69,-0.12 -1.83,-0.29 -2.77,-0.41 -0.2,-0.2 0.49,-1.59 0.74,-1.75l-0.01 0zm-23.46 25.3c0.97,0.77 2.89,1.1 4.59,1.1 2.2,0 4.4,-0.41 6.51,-2.32 2.16,-1.95 3.66,-4.96 3.66,-9.76 0,-4.6 -1.75,-8.34 -5.33,-10.54 -2.03,-1.26 -4.63,-1.78 -7.64,-1.78 -0.9,0 -1.75,0.04 -2.28,0.28 -0.12,0.08 -0.41,0.45 -0.41,0.65 -0.08,0.81 -0.08,7.08 -0.08,10.74 0,3.78 0,9.07 0.08,9.68 0,0.61 0.29,1.54 0.9,1.95l0 0zm-9.23 -25.3c0.77,0 3.74,0.12 5.16,0.12 2.56,0 4.39,-0.12 9.23,-0.12 4.07,0 7.49,1.1 9.93,3.17 2.97,2.57 4.51,6.1 4.51,10.42 0,6.14 -2.81,9.68 -5.61,11.71 -2.81,2.07 -6.47,3.29 -11.67,3.29 -2.77,0 -7.53,-0.08 -11.47,-0.12l-0.04 0c-0.21,-0.37 0.32,-1.79 0.65,-1.83 1.06,-0.12 1.34,-0.16 1.87,-0.37 0.85,-0.32 1.02,-0.77 1.14,-2.27 0.12,-2.81 0.08,-6.18 0.08,-10.01 0,-2.72 0.04,-8.05 -0.04,-9.76 -0.12,-1.42 -0.73,-1.79 -1.95,-2.03 -0.61,-0.12 -1.43,-0.29 -2.57,-0.41 -0.16,-0.28 0.57,-1.54 0.78,-1.79l0 0z"/>
    <path class="fil1" d="M120.07 51.63c-1.02,-0.12 -1.75,-0.28 -2.65,-0.69 -0.12,-0.08 -0.32,-0.48 -0.32,-0.65 -0.08,-1.42 -0.08,-5.49 -0.08,-8.21 0,-2.2 -0.37,-4.11 -1.31,-5.45 -1.09,-1.55 -2.68,-2.44 -4.71,-2.44 -1.79,0 -4.19,1.22 -6.19,2.93 -0.04,0.04 -0.36,0.32 -0.32,-0.13 0,-0.44 0.08,-1.34 0.12,-1.95 0.04,-0.57 -0.28,-0.85 -0.28,-0.85 -1.3,0.65 -4.96,1.5 -6.31,1.62 -0.97,0.21 -1.22,1.14 -0.2,1.47l0.04 0c1.1,0.32 1.83,0.69 2.4,1.06 0.41,0.32 0.37,0.77 0.37,1.13 0.04,3.05 0.04,7.73 -0.09,10.29 -0.04,1.02 -0.32,1.39 -1.05,1.55l0.08 -0.04c-0.57,0.12 -1.02,0.24 -1.71,0.32 -0.24,0.25 -0.24,1.55 0,1.83 0.45,0 2.81,-0.12 4.76,-0.12 2.68,0 4.07,0.12 4.76,0.12 0.28,-0.32 0.36,-1.54 0.2,-1.83 -0.77,-0.04 -1.34,-0.12 -1.87,-0.28 -0.73,-0.16 -0.94,-0.53 -0.98,-1.38 -0.08,-2.16 -0.08,-6.71 -0.08,-9.8 0,-0.86 0.25,-1.27 0.49,-1.51 0.94,-0.81 2.44,-1.38 3.78,-1.38 1.3,0 2.16,0.4 2.81,0.93 0.89,0.73 1.18,1.79 1.3,2.57 0.2,1.74 0.12,5.2 0.12,8.21 0,1.63 -0.12,2.03 -0.73,2.24 -0.28,0.12 -1.02,0.28 -1.87,0.36 -0.29,0.29 -0.2,1.55 0,1.83 1.18,0 2.56,-0.12 4.59,-0.12 2.53,0 4.15,0.12 4.8,0.12 0.21,-0.24 0.29,-1.42 0.13,-1.75zm11.26 -15.53c-2.15,0 -3.5,1.67 -3.5,4.27 0,2.64 1.18,5.69 4.52,5.69 0.57,0 1.63,-0.24 2.11,-0.81 0.78,-0.73 1.3,-2.2 1.3,-3.74 0,-3.38 -1.66,-5.41 -4.43,-5.41l0 0zm-0.28 17.97c-0.82,0 -1.39,0.25 -1.75,0.45 -1.71,1.1 -2.48,2.16 -2.48,3.42 0,1.18 0.44,2.11 1.42,2.93 1.18,1.01 2.81,1.5 4.88,1.5 4.15,0 5.98,-2.24 5.98,-4.43 0,-1.55 -0.77,-2.56 -2.36,-3.13 -1.14,-0.49 -3.21,-0.74 -5.69,-0.74l0 0zm0.28 10.58c-2.48,0 -4.27,-0.53 -5.81,-1.71 -1.51,-1.14 -2.16,-2.85 -2.16,-4.03 0,-0.32 0.08,-1.22 0.81,-2.03 0.45,-0.49 1.43,-1.42 3.75,-3.01 0.08,-0.04 0.12,-0.08 0.12,-0.16 0,-0.08 -0.08,-0.16 -0.17,-0.2 -1.91,-0.74 -2.48,-1.92 -2.64,-2.57l0 -0.08c-0.04,-0.24 -0.12,-0.49 0.25,-0.73 0.28,-0.2 0.69,-0.45 1.13,-0.73 0.69,-0.41 1.43,-0.86 1.87,-1.22 0.09,-0.08 0.09,-0.16 0.09,-0.25 0,-0.08 -0.09,-0.16 -0.17,-0.2 -2.84,-0.94 -4.27,-3.05 -4.27,-6.22 0,-2.08 0.94,-3.95 2.61,-5.13 1.13,-0.89 3.98,-1.99 5.85,-1.99l0.12 0c1.92,0.04 2.97,0.45 4.48,0.98 0.81,0.28 1.58,0.4 2.64,0.4 1.59,0 2.28,-0.48 2.85,-1.05 0.04,0.08 0.12,0.28 0.16,0.81 0.04,0.53 -0.12,1.3 -0.53,1.87 -0.32,0.45 -1.06,0.77 -1.79,0.77l-0.2 0c-0.73,-0.08 -1.06,-0.16 -1.06,-0.16l-0.16 0.08c-0.04,0.08 0,0.16 0.04,0.29l0.04 0.08c0.08,0.36 0.24,1.46 0.24,1.75 0,3.33 -1.34,4.8 -2.76,5.89 -1.38,1.02 -2.97,1.67 -4.76,1.83 -0.04,0 -0.2,0 -0.57,0.04 -0.2,0 -0.49,0.05 -0.53,0.05l-0.04 0c-0.32,0.08 -1.14,0.48 -1.14,1.17 0,0.61 0.37,1.35 2.12,1.47 0.36,0.04 0.73,0.04 1.14,0.08 2.32,0.16 5.2,0.37 6.54,0.81 1.88,0.69 3.05,2.36 3.05,4.35 0,3.02 -2.15,5.82 -5.73,7.57 -1.75,0.77 -3.5,1.18 -5.41,1.18l0 0zm23.18 -28.35c-0.85,0 -1.62,0.21 -2.19,0.61 -1.59,0.98 -2.4,2.93 -2.4,5.78 0,5.33 2.68,9.07 6.5,9.07 1.14,0 2.04,-0.33 2.81,-0.98 1.18,-0.98 1.79,-2.93 1.79,-5.65 0,-5.29 -2.64,-8.83 -6.51,-8.83l0 0zm0.74 17.41c-6.92,0 -9.4,-5.08 -9.4,-9.84 0,-3.34 1.34,-5.9 4.03,-7.73 1.91,-1.18 4.19,-1.83 6.22,-1.83 5.29,0 8.99,3.78 8.99,9.23 0,3.7 -1.47,6.63 -4.27,8.42 -1.35,0.89 -3.66,1.75 -5.58,1.75l0.01 0zm-72.48 -17.41c-0.85,0 -1.62,0.21 -2.19,0.61 -1.59,0.98 -2.4,2.93 -2.4,5.78 0,5.33 2.68,9.07 6.5,9.07 1.14,0 2.04,-0.33 2.81,-0.98 1.18,-0.98 1.79,-2.93 1.79,-5.65 0,-5.29 -2.6,-8.83 -6.51,-8.83l0 0zm0.73 17.41c-6.91,0 -9.39,-5.08 -9.39,-9.84 0,-3.34 1.34,-5.9 4.03,-7.73 1.91,-1.18 4.18,-1.83 6.22,-1.83 5.29,0 8.99,3.78 8.99,9.23 0,3.7 -1.47,6.63 -4.27,8.42 -1.31,0.89 -3.62,1.75 -5.58,1.75l0 0zm-46.48 -0.41c-0.08,-0.12 -0.16,-0.49 -0.12,-0.93 0,-0.33 0.08,-0.53 0.12,-0.61 0.85,-0.13 1.3,-0.25 1.79,-0.37 0.81,-0.2 1.14,-0.65 1.18,-1.67 0.12,-2.44 0.12,-7.07 0.08,-10.29l0 -0.08c0,-0.36 0,-0.81 -0.45,-1.14 -0.65,-0.4 -1.42,-0.77 -2.44,-1.05 -0.36,-0.13 -0.61,-0.33 -0.57,-0.57 0,-0.25 0.25,-0.53 0.77,-0.61 1.35,-0.13 4.84,-0.98 6.23,-1.59 0.08,0.08 0.2,0.33 0.2,0.65l-0.04 0.45c-0.04,0.45 -0.08,0.97 -0.08,1.5 0,0.17 0.16,0.29 0.32,0.29 0.09,0 0.17,-0.04 0.25,-0.08 2.6,-2.04 4.96,-2.77 6.18,-2.77 1.99,0 3.54,0.94 4.72,2.89 0.08,0.12 0.16,0.16 0.28,0.16 0.08,0 0.2,-0.04 0.25,-0.12 2.4,-1.83 4.8,-2.93 6.38,-2.93 3.78,0 6.02,2.81 6.02,7.57 0,1.34 0,3.09 -0.04,4.67 0,1.43 -0.04,2.73 -0.04,3.66 0,0.21 0.28,0.86 0.73,0.98 0.57,0.28 1.34,0.41 2.36,0.57l0.04 0c0.08,0.28 -0.08,1.34 -0.24,1.54 -0.25,0 -0.61,0 -1.02,-0.04 -1.02,-0.05 -2.07,-0.08 -3.09,-0.08 -2.52,0 -3.82,0.04 -5.09,0.12 -0.08,-0.32 -0.12,-1.3 0,-1.54 0.74,-0.12 1.1,-0.25 1.55,-0.37 0.81,-0.24 1.02,-0.61 1.06,-1.66 0,-0.78 0.16,-7.37 -0.08,-8.95 -0.25,-1.63 -1.47,-3.54 -4.15,-3.54 -1.02,0 -2.6,0.41 -4.15,1.59 -0.08,0.08 -0.16,0.28 -0.16,0.4l0 0.04c0.16,0.86 0.16,1.83 0.16,3.34l0 2.64c0,1.83 -0.04,3.54 0,4.84 0,0.9 0.53,1.1 0.98,1.26 0.24,0.04 0.4,0.08 0.61,0.12 0.36,0.09 0.73,0.17 1.3,0.29 0.08,0.16 0.08,0.69 -0.04,1.14 -0.04,0.24 -0.13,0.36 -0.17,0.4 -1.38,-0.04 -2.8,-0.08 -4.88,-0.08 -0.61,0 -1.66,0.04 -2.56,0.04 -0.73,0 -1.42,0.04 -1.83,0.04 -0.04,-0.08 -0.12,-0.36 -0.12,-0.81 0,-0.37 0.08,-0.65 0.16,-0.73 0.21,-0.04 0.37,-0.08 0.57,-0.08 0.49,-0.08 0.9,-0.17 1.3,-0.25 0.69,-0.2 0.94,-0.57 0.98,-1.46 0.12,-2.03 0.24,-7.85 -0.04,-9.31 -0.49,-2.36 -1.83,-3.54 -3.99,-3.54 -1.26,0 -2.84,0.61 -4.15,1.58 -0.2,0.17 -0.36,0.57 -0.36,0.94l0 2.4c0,2.93 0,6.59 0.04,8.17 0.04,0.49 0.2,1.06 1.14,1.26 0.2,0.04 0.53,0.13 0.93,0.17l0.74 0.12c0.08,0.24 0.04,1.22 -0.13,1.54 -0.4,0 -0.89,-0.04 -1.46,-0.04 -0.85,-0.04 -1.95,-0.08 -3.17,-0.08 -1.43,0 -2.44,0.04 -3.26,0.08 -0.57,-0.08 -1.01,-0.08 -1.5,-0.08l0 0z"/>
    <path class="fil2" d="M15.63 63.06l-1.67 -0.57c0,0 0.2,-8.5 -2.85,-9.11 -2.03,-2.36 0.33,-100.04 7.65,-0.32 0,0 -2.52,1.26 -2.97,3.41 -0.49,2.12 -0.16,6.59 -0.16,6.59l0 0z"/>
    <path class="fil3" d="M15.63 63.06l-1.67 -0.57c0,0 0.2,-8.5 -2.85,-9.11 -2.03,-2.36 0.33,-100.04 7.65,-0.32 0,0 -2.52,1.26 -2.97,3.41 -0.49,2.12 -0.16,6.59 -0.16,6.59l0 0z"/>
    <g>
     <path class="fil2" d="M16.52 54.85c0,0 14.6,-9.6 11.18,-29.57 -3.29,-14.52 -11.06,-19.28 -11.91,-21.11 -0.94,-1.3 -1.83,-3.58 -1.83,-3.58l0.61 40.39c0,0.04 -1.26,12.36 1.95,13.87l0 0zm0 0l0 0 0 0z"/>
    </g>
    <g>
     <path class="fil4" d="M16.52 54.85c0,0 14.6,-9.6 11.18,-29.57 -3.29,-14.52 -11.06,-19.28 -11.91,-21.11 -0.94,-1.3 -1.83,-3.58 -1.83,-3.58l0.61 40.39c0,0.04 -1.26,12.36 1.95,13.87l0 0zm0 0l0 0 0 0z"/>
    </g>
    <path class="fil2" d="M13.11 55.38c0,0 -13.71,-9.36 -12.9,-25.83 0.78,-16.47 10.45,-24.56 12.33,-26.03 1.22,-1.3 1.26,-1.79 1.34,-3.09 0.85,1.83 0.69,27.37 0.81,30.38 0.37,11.59 -0.65,22.37 -1.58,24.57l0 0z"/>
    <path class="fil5" d="M13.11 55.38c0,0 -13.71,-9.36 -12.9,-25.83 0.78,-16.47 10.45,-24.56 12.33,-26.03 1.22,-1.3 1.26,-1.79 1.34,-3.09 0.85,1.83 0.69,27.37 0.81,30.38 0.37,11.59 -0.65,22.37 -1.58,24.57l0 0z"/>
   </g>
  </g>
 </g>
</svg>
