<?xml version="1.0" encoding="UTF-8"?>
<!DOCTYPE svg PUBLIC "-//W3C//DTD SVG 1.1//EN" "http://www.w3.org/Graphics/SVG/1.1/DTD/svg11.dtd">
<!-- Creator: CorelDRAW -->
<svg xmlns="http://www.w3.org/2000/svg" xml:space="preserve" width="106px" height="65px" version="1.1" style="shape-rendering:geometricPrecision; text-rendering:geometricPrecision; image-rendering:optimizeQuality; fill-rule:evenodd; clip-rule:evenodd"
viewBox="0 0 106 65"
 xmlns:xlink="http://www.w3.org/1999/xlink"
 xmlns:xodm="http://www.corel.com/coreldraw/odm/2003">
 <defs>
  <style type="text/css">
   <![CDATA[
    .fil3 {fill:none;fill-rule:nonzero}
    .fil0 {fill:#539E43;fill-rule:nonzero}
    .fil1 {fill:white;fill-rule:nonzero}
    .fil6 {fill:url(#id0)}
    .fil8 {fill:url(#id1)}
    .fil9 {fill:url(#id2)}
    .fil5 {fill:url(#id3)}
    .fil7 {fill:url(#id4)}
    .fil4 {fill:url(#id5);fill-rule:nonzero}
    .fil2 {fill:url(#id6);fill-rule:nonzero}
   ]]>
  </style>
  <linearGradient id="id0" gradientUnits="userSpaceOnUse" x1="27.53" y1="27.68" x2="50.8" y2="27.68">
   <stop offset="0" style="stop-opacity:1; stop-color:#6CC04A"/>
   <stop offset="0.0901961" style="stop-opacity:1; stop-color:#6CC04A"/>
   <stop offset="0.290196" style="stop-opacity:1; stop-color:#66B848"/>
   <stop offset="0.6" style="stop-opacity:1; stop-color:#54A044"/>
   <stop offset="0.858824" style="stop-opacity:1; stop-color:#41873F"/>
   <stop offset="1" style="stop-opacity:1; stop-color:#41873F"/>
  </linearGradient>
  <linearGradient id="id1" gradientUnits="userSpaceOnUse" xlink:href="#id0" x1="27.52" y1="37.28" x2="50.8" y2="37.28">
  </linearGradient>
  <linearGradient id="id2" gradientUnits="userSpaceOnUse" x1="49.96" y1="25.74" x2="44.06" y2="56.63">
   <stop offset="0" style="stop-opacity:1; stop-color:#41873F"/>
   <stop offset="0.329412" style="stop-opacity:1; stop-color:#418B3D"/>
   <stop offset="0.639216" style="stop-opacity:1; stop-color:#419637"/>
   <stop offset="0.929412" style="stop-opacity:1; stop-color:#3FA92D"/>
   <stop offset="1" style="stop-opacity:1; stop-color:#3FAE2A"/>
  </linearGradient>
  <linearGradient id="id3" gradientUnits="userSpaceOnUse" xlink:href="#id0" x1="29.63" y1="12.94" x2="48.25" y2="12.94">
  </linearGradient>
  <linearGradient id="id4" gradientUnits="userSpaceOnUse" xlink:href="#id0" x1="43.77" y1="34.34" x2="50.75" y2="34.34">
  </linearGradient>
  <linearGradient id="id5" gradientUnits="userSpaceOnUse" x1="36.58" y1="43.31" x2="64.19" y2="28.31">
   <stop offset="0" style="stop-opacity:1; stop-color:#41873F"/>
   <stop offset="0.141176" style="stop-opacity:1; stop-color:#41873F"/>
   <stop offset="0.4" style="stop-opacity:1; stop-color:#54A044"/>
   <stop offset="0.709804" style="stop-opacity:1; stop-color:#66B848"/>
   <stop offset="0.909804" style="stop-opacity:1; stop-color:#6CC04A"/>
   <stop offset="1" style="stop-opacity:1; stop-color:#6CC04A"/>
  </linearGradient>
  <linearGradient id="id6" gradientUnits="userSpaceOnUse" xlink:href="#id2" x1="44.22" y1="18.09" x2="33.19" y2="35.41">
  </linearGradient>
 </defs>
 <g id="Layer_x0020_1">
  <metadata id="CorelCorpID_0Corel-Layer"/>
  <g id="SVGRepo_iconCarrier">
   <g>
    <path class="fil0" d="M52.4 64.77c-0.36,0 -0.69,-0.1 -1,-0.27l-3.18 -1.88c-0.48,-0.27 -0.24,-0.36 -0.09,-0.41 0.64,-0.22 0.76,-0.26 1.43,-0.65 0.07,-0.04 0.17,-0.02 0.24,0.03l2.44 1.46c0.09,0.04 0.21,0.04 0.28,0l9.53 -5.52c0.1,-0.05 0.15,-0.15 0.15,-0.27l0 -11.01c0,-0.12 -0.05,-0.21 -0.15,-0.26l-9.53 -5.5c-0.09,-0.04 -0.21,-0.04 -0.28,0l-9.54 5.5c-0.09,0.05 -0.14,0.17 -0.14,0.26l0 11.01c0,0.1 0.05,0.22 0.14,0.27l2.61 1.5c1.41,0.72 2.29,-0.12 2.29,-0.95l0 -10.87c0,-0.15 0.12,-0.29 0.29,-0.29l1.22 0c0.14,0 0.28,0.12 0.28,0.29l0 10.87c0,1.88 -1.02,2.98 -2.82,2.98 -0.55,0 -0.98,0 -2.19,-0.59l-2.51 -1.44c-0.62,-0.36 -1.01,-1.03 -1.01,-1.74l0 -11.02c0,-0.71 0.39,-1.38 1.01,-1.74l9.53 -5.52c0.6,-0.33 1.41,-0.33 2.01,0l9.53 5.52c0.62,0.36 1,1.03 1,1.74l0 11.02c0,0.71 -0.38,1.38 -1,1.74l-9.53 5.52c-0.31,0.14 -0.67,0.22 -1.01,0.22zm2.94 -7.58c-4.18,0 -5.04,-1.91 -5.04,-3.53 0,-0.15 0.12,-0.29 0.29,-0.29l1.24 0c0.14,0 0.26,0.1 0.26,0.24 0.19,1.27 0.74,1.89 3.28,1.89 2,0 2.86,-0.46 2.86,-1.53 0,-0.62 -0.24,-1.08 -3.37,-1.39 -2.6,-0.26 -4.23,-0.83 -4.23,-2.91 0,-1.94 1.63,-3.08 4.35,-3.08 3.06,0 4.57,1.05 4.76,3.34 0,0.07 -0.03,0.14 -0.07,0.21 -0.05,0.05 -0.12,0.1 -0.2,0.1l-1.24 0c-0.12,0 -0.24,-0.1 -0.26,-0.21 -0.29,-1.32 -1.03,-1.75 -2.99,-1.75 -2.19,0 -2.46,0.77 -2.46,1.34 0,0.69 0.31,0.91 3.28,1.29 2.93,0.38 4.32,0.93 4.32,2.99 -0.02,2.1 -1.74,3.29 -4.78,3.29z"/>
    <path class="fil1" d="M22.83 21.69c0,-0.43 -0.24,-0.83 -0.62,-1.05l-10.13 -5.83c-0.17,-0.09 -0.36,-0.14 -0.55,-0.17l-0.1 0c-0.19,0 -0.38,0.08 -0.55,0.17l-10.13 5.83c-0.38,0.22 -0.62,0.62 -0.62,1.05l0.02 15.67c0,0.22 0.12,0.43 0.32,0.53 0.19,0.12 0.43,0.12 0.59,0l6.02 -3.44c0.39,-0.22 0.62,-0.62 0.62,-1.05l0 -7.34c0,-0.43 0.24,-0.83 0.63,-1.05l2.55 -1.48c0.19,-0.12 0.41,-0.17 0.62,-0.17 0.22,0 0.43,0.05 0.6,0.17l2.56 1.48c0.38,0.22 0.62,0.62 0.62,1.05l0 7.34c0,0.43 0.24,0.83 0.62,1.05l6.02 3.44c0.19,0.12 0.43,0.12 0.62,0 0.19,-0.1 0.31,-0.31 0.31,-0.53l-0.02 -15.67 0 0z"/>
    <path class="fil1" d="M71.51 0.12c-0.19,-0.1 -0.43,-0.1 -0.59,0 -0.19,0.12 -0.31,0.31 -0.31,0.52l0 15.53c0,0.15 -0.07,0.29 -0.22,0.39 -0.14,0.07 -0.28,0.07 -0.43,0l-2.53 -1.46c-0.38,-0.22 -0.84,-0.22 -1.22,0l-10.13 5.85c-0.38,0.22 -0.62,0.62 -0.62,1.05l0 11.68c0,0.43 0.24,0.84 0.62,1.06l10.13 5.85c0.38,0.21 0.84,0.21 1.22,0l10.13 -5.85c0.38,-0.22 0.62,-0.63 0.62,-1.06l0 -29.12c0,-0.45 -0.24,-0.86 -0.62,-1.07l-6.05 -3.37 0 0zm-0.93 29.72c0,0.12 -0.04,0.21 -0.14,0.26l-3.46 2.01c-0.1,0.05 -0.22,0.05 -0.31,0l-3.47 -2.01c-0.09,-0.05 -0.14,-0.17 -0.14,-0.26l0 -4.02c0,-0.11 0.05,-0.21 0.14,-0.26l3.47 -2c0.09,-0.05 0.21,-0.05 0.31,0l3.46 2c0.1,0.05 0.14,0.17 0.14,0.26l0 4.02 0 0z"/>
    <g>
     <path class="fil1" d="M105.22 25.73c0.39,-0.22 0.6,-0.62 0.6,-1.05l0 -2.84c0,-0.43 -0.24,-0.84 -0.6,-1.06l-10.05 -5.83c-0.39,-0.21 -0.84,-0.21 -1.22,0l-10.13 5.86c-0.38,0.21 -0.62,0.62 -0.62,1.05l0 11.68c0,0.43 0.24,0.84 0.62,1.05l10.06 5.74c0.38,0.21 0.83,0.21 1.19,0l6.09 -3.4c0.19,-0.09 0.31,-0.31 0.31,-0.52 0,-0.22 -0.12,-0.43 -0.31,-0.53l-10.17 -5.85c-0.2,-0.12 -0.32,-0.31 -0.32,-0.53l0 -3.65c0,-0.22 0.12,-0.43 0.32,-0.53l3.17 -1.81c0.19,-0.12 0.43,-0.12 0.62,0l3.18 1.81c0.19,0.12 0.31,0.31 0.31,0.53l0 2.87c0,0.21 0.12,0.43 0.31,0.52 0.19,0.12 0.43,0.12 0.62,0l6.02 -3.51 0 0z"/>
     <path class="fil0" d="M94.4 25.18c0.07,-0.05 0.17,-0.05 0.24,0l1.94 1.12c0.07,0.05 0.12,0.12 0.12,0.22l0 2.24c0,0.1 -0.05,0.17 -0.12,0.22l-1.94 1.12c-0.07,0.05 -0.17,0.05 -0.24,0l-1.93 -1.12c-0.08,-0.05 -0.12,-0.12 -0.12,-0.22l0 -2.24c0,-0.1 0.04,-0.17 0.12,-0.22l1.93 -1.12 0 0z"/>
    </g>
    <g>
     <g>
      <path class="fil2" d="M39.76 15c-0.38,-0.21 -0.83,-0.21 -1.21,0l-10.06 5.81c-0.38,0.21 -0.6,0.62 -0.6,1.05l0 11.63c0,0.43 0.24,0.84 0.6,1.05l10.06 5.81c0.38,0.21 0.83,0.21 1.21,0l10.06 -5.81c0.38,-0.21 0.6,-0.62 0.6,-1.05l0 -11.63c0,-0.43 -0.24,-0.84 -0.6,-1.05l-10.06 -5.81 0 0z"/>
     </g>
     <g>
      <path class="fil3" d="M38.52 15l-10.08 5.81c-0.38,0.21 -0.64,0.62 -0.64,1.05l0 11.63c0,0.29 0.12,0.55 0.31,0.77l11.32 -19.4c-0.29,-0.05 -0.62,-0.02 -0.91,0.14l0 0z"/>
      <path class="fil3" d="M39.5 40.47c0.1,-0.02 0.19,-0.07 0.29,-0.12l10.08 -5.81c0.38,-0.21 0.62,-0.62 0.62,-1.05l0 -11.63c0,-0.31 -0.14,-0.62 -0.36,-0.84l-10.63 19.45 0 0z"/>
      <path class="fil4" d="M49.85 20.81l-10.11 -5.81c-0.09,-0.05 -0.21,-0.09 -0.31,-0.12l-11.32 19.4c0.09,0.12 0.21,0.22 0.33,0.29l10.11 5.8c0.28,0.17 0.62,0.22 0.93,0.12l10.63 -19.44c-0.07,-0.1 -0.17,-0.17 -0.26,-0.24l0 0z"/>
     </g>
     <g>
      <g>
       <path class="fil3" d="M50.49 33.49l0 -11.63c0,-0.43 -0.26,-0.84 -0.64,-1.05l-10.11 -5.81c-0.12,-0.07 -0.24,-0.12 -0.38,-0.14l11.06 18.9c0.05,-0.08 0.07,-0.17 0.07,-0.27l0 0z"/>
       <path class="fil3" d="M28.44 20.81c-0.38,0.21 -0.64,0.62 -0.64,1.05l0 11.63c0,0.43 0.28,0.84 0.64,1.05l10.11 5.81c0.24,0.14 0.5,0.19 0.78,0.14l-10.82 -19.71 -0.07 0.03 0 0z"/>
       <polygon class="fil5" points="38.21,12.88 38.07,12.95 38.26,12.95 "/>
       <path class="fil6" d="M49.87 34.54c0.29,-0.16 0.5,-0.45 0.6,-0.76l-11.09 -18.92c-0.28,-0.05 -0.59,-0.02 -0.86,0.14l-10.03 5.78 10.82 19.74c0.14,-0.03 0.31,-0.07 0.45,-0.15l10.11 -5.83 0 0z"/>
       <polygon class="fil7" points="50.8,34.35 50.73,34.23 50.73,34.4 "/>
       <path class="fil8" d="M49.87 34.54l-10.08 5.81c-0.14,0.07 -0.29,0.12 -0.46,0.14l0.2 0.36 11.18 -6.47 0 -0.15 -0.29 -0.47c-0.05,0.33 -0.26,0.62 -0.55,0.78l0 0z"/>
       <path class="fil9" d="M49.87 34.54l-10.08 5.81c-0.14,0.07 -0.29,0.12 -0.46,0.14l0.2 0.36 11.18 -6.47 0 -0.15 -0.29 -0.47c-0.05,0.33 -0.26,0.62 -0.55,0.78l0 0z"/>
      </g>
     </g>
    </g>
   </g>
  </g>
 </g>
</svg>
